<svg xmlns="http://www.w3.org/2000/svg" viewBox="0 0 500 500" width="500" height="500" role="img" aria-label="Graphite Summer — cover art"><defs><linearGradient id="grad-graphite-summer" x1="0" y1="0" x2="0.3" y2="1"><stop offset="0" stop-color="#8a8d90"/><stop offset="1" stop-color="#37393d"/></linearGradient></defs><rect width="500" height="500" fill="url(#grad-graphite-summer)"/><line x1="50" y1="0" x2="50" y2="500" stroke="#d3d6d9" stroke-width="1.5" opacity="0.35"/><line x1="100" y1="0" x2="100" y2="500" stroke="#d3d6d9" stroke-width="1.5" opacity="0.35"/><line x1="150" y1="0" x2="150" y2="500" stroke="#d3d6d9" stroke-width="1.5" opacity="0.35"/><line x1="200" y1="0" x2="200" y2="500" stroke="#d3d6d9" stroke-width="1.5" opacity="0.35"/><line x1="250" y1="0" x2="250" y2="500" stroke="#d3d6d9" stroke-width="1.5" opacity="0.35"/><line x1="300" y1="0" x2="300" y2="500" stroke="#d3d6d9" stroke-width="1.5" opacity="0.35"/><line x1="350" y1="0" x2="350" y2="500" stroke="#d3d6d9" stroke-width="1.5" opacity="0.35"/><line x1="400" y1="0" x2="400" y2="500" stroke="#d3d6d9" stroke-width="1.5" opacity="0.35"/><line x1="450" y1="0" x2="450" y2="500" stroke="#d3d6d9" stroke-width="1.5" opacity="0.35"/><line x1="0" y1="50" x2="500" y2="50" stroke="#d3d6d9" stroke-width="1.5" opacity="0.35"/><line x1="0" y1="100" x2="500" y2="100" stroke="#d3d6d9" stroke-width="1.5" opacity="0.35"/><line x1="0" y1="150" x2="500" y2="150" stroke="#d3d6d9" stroke-width="1.5" opacity="0.35"/><line x1="0" y1="200" x2="500" y2="200" stroke="#d3d6d9" stroke-width="1.5" opacity="0.35"/><line x1="0" y1="250" x2="500" y2="250" stroke="#d3d6d9" stroke-width="1.5" opacity="0.35"/><line x1="0" y1="300" x2="500" y2="300" stroke="#d3d6d9" stroke-width="1.5" opacity="0.35"/><line x1="0" y1="350" x2="500" y2="350" stroke="#d3d6d9" stroke-width="1.5" opacity="0.35"/><line x1="0" y1="400" x2="500" y2="400" stroke="#d3d6d9" stroke-width="1.5" opacity="0.35"/><line x1="0" y1="450" x2="500" y2="450" stroke="#d3d6d9" stroke-width="1.5" opacity="0.35"/><rect x="0" y="352" width="500" height="148" fill="#000" opacity="0.28"/><text x="42" y="432" font-family="Georgia, 'Times New Roman', serif" font-size="44" font-weight="700" fill="#ffffff" letter-spacing="-0.5">Graphite Summer</text><text x="44" y="463" font-family="'Helvetica Neue', Arial, sans-serif" font-size="15" fill="#ffffff" opacity="0.82" letter-spacing="4">AMBER GHOST</text></svg>
